<?xml version="1.0" standalone="no"?>
<!DOCTYPE svg PUBLIC "-//W3C//DTD SVG 20010904//EN"
 "http://www.w3.org/TR/2001/REC-SVG-20010904/DTD/svg10.dtd">
<svg version="1.0" xmlns="http://www.w3.org/2000/svg"
 width="219.000000pt" height="219.000000pt" viewBox="0 0 219.000000 219.000000"
 preserveAspectRatio="xMidYMid meet">
<metadata>
Created by potrace 1.14, written by Peter Selinger 2001-2017
</metadata>
<g transform="translate(0.000000,219.000000) scale(0.100000,-0.100000)"
fill="#000000" stroke="none">
<path d="M920 2176 c-262 -50 -495 -197 -643 -407 -117 -166 -177 -350 -183
-554 -7 -296 93 -548 299 -748 44 -42 73 -75 65 -72 -11 4 -17 -3 -21 -24 -4
-17 -13 -31 -20 -31 -14 0 -67 -71 -67 -89 0 -28 115 -112 205 -149 172 -72
341 -100 575 -97 96 2 185 5 196 8 12 3 39 8 60 11 126 20 292 90 379 161 l44
37 -24 48 c-14 27 -34 51 -45 55 -11 3 -21 11 -21 16 -3 19 -4 24 -11 35 -4 6
16 31 47 58 206 178 332 459 333 741 0 148 -17 248 -63 365 -122 317 -362 531
-696 621 -92 25 -313 33 -409 15z m354 -81 c62 -11 198 -62 265 -99 254 -144
412 -373 466 -676 8 -46 9 -225 1 -270 -38 -211 -138 -404 -278 -535 -65 -61
-134 -112 -211 -154 -75 -40 -81 -39 -23 4 25 20 46 39 46 42 0 4 -10 17 -22
30 l-22 23 -30 -29 c-17 -16 -53 -41 -80 -54 l-49 -25 -49 26 c-44 23 -63 26
-157 27 -58 1 -123 5 -144 9 -51 11 -124 -1 -148 -25 -18 -18 -21 -18 -52 -3
-17 9 -48 32 -68 51 l-36 34 -36 -17 c-21 -10 -37 -21 -37 -26 0 -4 23 -26 51
-48 28 -22 48 -40 44 -40 -4 0 -37 18 -73 39 -287 169 -465 477 -463 801 0
114 7 164 37 268 50 171 162 342 300 456 210 173 479 240 768 191z m-171
-1800 c20 -8 49 -15 64 -16 l28 -1 -30 -9 c-47 -15 -237 -10 -254 6 -2 3 13 5
35 6 29 0 109 19 120 28 1 1 18 -6 37 -14z m-393 -40 c47 -19 93 -35 102 -35
9 0 24 -13 34 -29 35 -60 103 -78 185 -50 41 15 60 17 84 9 30 -10 85 -15 138
-12 16 1 44 17 70 41 23 21 60 44 82 51 22 7 57 21 77 31 45 23 48 23 48 4 0
-17 36 -20 74 -5 21 8 26 7 26 -6 0 -12 6 -15 28 -10 l27 7 -25 -21 c-50 -41
-200 -100 -295 -115 -16 -3 -55 -9 -85 -14 -56 -9 -321 -7 -375 2 -37 7 -123
25 -150 31 -75 17 -220 81 -265 117 l-25 19 27 -9 c21 -8 29 -7 35 4 6 10 17
12 43 6 39 -9 63 -4 54 10 -8 13 -7 13 86 -26z"/>
<path d="M989 2026 c-2 -2 -27 -6 -54 -10 -134 -15 -322 -116 -397 -211 -19
-25 -19 -25 4 -67 13 -24 33 -51 46 -61 12 -10 22 -25 22 -33 0 -21 34 -17 56
7 10 11 34 27 52 35 25 10 32 18 28 30 -3 8 -6 23 -6 31 0 12 -8 14 -39 9 -24
-4 -42 -2 -46 5 -4 6 -13 8 -21 5 -8 -3 -14 -1 -14 4 0 6 4 10 9 10 5 0 16 7
24 15 21 21 117 72 169 91 190 67 426 59 593 -21 74 -35 177 -116 123 -96 -19
7 -28 7 -28 0 0 -6 -18 -9 -42 -7 -41 3 -42 2 -45 -30 -2 -27 2 -34 22 -42 13
-5 42 -21 64 -36 40 -26 61 -25 61 3 0 9 10 25 23 37 12 11 28 40 36 63 13 39
12 43 -9 73 -47 66 -201 145 -343 176 -64 14 -278 29 -288 20z"/>
<path d="M1062 1840 c0 -14 2 -19 5 -12 2 6 2 18 0 25 -3 6 -5 1 -5 -13z"/>
<path d="M1101 1833 c-8 -14 -11 -15 -11 -3 0 12 -3 11 -11 -3 -10 -18 -11
-18 -31 0 -21 18 -21 18 -8 -7 12 -23 12 -24 -4 -11 -9 8 -19 11 -23 7 -3 -3
-1 -6 5 -6 7 0 12 -5 12 -11 0 -6 -8 -8 -17 -5 -15 5 -15 4 1 -9 20 -15 20
-15 0 -15 -16 0 -17 -2 -4 -10 12 -8 10 -10 -10 -11 -23 -1 -23 -2 5 -9 17 -4
22 -8 13 -9 -9 0 -20 -5 -23 -11 -3 -5 0 -7 8 -4 21 8 31 -14 16 -34 -10 -12
-8 -12 9 2 23 20 23 20 16 0 -7 -16 -6 -17 8 -6 14 12 16 10 11 -10 l-6 -23
22 25 c12 14 20 21 18 15 -3 -5 2 -16 10 -24 13 -12 14 -11 8 10 l-8 24 23
-20 23 -20 -12 23 c-13 24 -3 29 19 10 8 -7 6 -3 -4 10 -11 12 -15 22 -10 22
5 0 17 11 26 24 17 23 17 24 -5 19 -21 -4 -21 -3 3 12 22 14 22 16 4 12 -23
-5 -29 18 -10 43 6 8 0 6 -13 -5 -23 -19 -24 -19 -17 -1 5 16 4 17 -9 6 -13
-11 -14 -10 -9 4 8 21 -2 21 -15 -1z"/>
<path d="M1170 1810 c-9 -6 -10 -10 -3 -10 6 0 15 5 18 10 8 12 4 12 -15 0z"/>
<path d="M1160 1716 c0 -2 7 -7 16 -10 8 -3 12 -2 9 4 -6 10 -25 14 -25 6z"/>
<path d="M1000 1700 c-9 -6 -10 -10 -3 -10 6 0 15 5 18 10 8 12 4 12 -15 0z"/>
<path d="M458 1682 c-91 -60 -168 -234 -179 -407 -2 -28 -11 -49 -31 -71 l-28
-30 25 -24 c14 -13 25 -33 25 -45 0 -42 48 -212 75 -266 15 -30 41 -72 58 -93
38 -48 150 -132 155 -116 2 6 -15 39 -37 73 -46 70 -84 170 -101 265 -10 59
-10 65 12 94 42 60 34 173 -17 225 -8 7 -11 27 -8 50 13 112 36 217 59 272 31
79 30 98 -8 73z m-32 -464 c9 -31 6 -96 -6 -116 -12 -21 -11 -23 -14 66 -3 71
6 93 20 50z"/>
<path d="M1670 1667 c0 -8 13 -51 29 -94 24 -65 42 -156 56 -270 1 -11 -11
-40 -26 -64 -39 -57 -41 -137 -4 -192 25 -35 25 -39 14 -104 -15 -92 -60 -205
-109 -277 -22 -33 -38 -61 -36 -63 10 -10 91 42 132 85 41 43 118 178 129 227
2 11 9 38 15 60 5 22 12 60 16 85 3 29 14 55 30 71 l25 26 -25 21 c-19 14 -28
33 -32 64 -17 138 -29 186 -65 263 -28 58 -65 105 -121 155 -22 19 -28 20 -28
7z m84 -519 c-3 -85 -3 -83 -16 -70 -11 11 -13 91 -2 125 11 35 21 6 18 -55z"/>
<path d="M1027 1437 c-31 -61 -78 -139 -105 -173 -34 -42 -47 -65 -41 -76 11
-20 7 -38 -19 -79 -12 -20 -37 -69 -56 -109 -26 -57 -35 -68 -41 -54 -19 49
-47 132 -51 154 -3 14 -7 33 -10 43 -3 9 0 17 6 17 7 0 9 7 6 16 -3 9 -2 12 5
9 5 -4 7 -15 4 -24 -4 -14 0 -18 22 -16 32 1 41 25 19 48 -14 13 -14 16 2 22
15 6 14 8 -8 21 -21 12 -22 14 -4 9 14 -4 24 0 27 9 4 10 1 13 -7 10 -8 -3
-16 4 -19 15 -6 26 -27 28 -28 4 0 -17 -1 -17 -8 0 -4 10 -11 18 -16 17 -5 -1
-10 3 -11 10 -2 6 0 6 2 1 9 -16 34 0 34 21 0 16 -5 19 -21 15 -16 -4 -18 -3
-8 9 9 11 9 14 -1 14 -10 0 -10 3 0 16 11 13 10 16 -8 21 -12 3 -19 9 -16 14
3 5 9 7 13 5 4 -3 8 1 8 9 0 10 -4 12 -11 5 -8 -6 -19 5 -35 36 -22 41 -51 63
-37 29 3 -8 0 -15 -7 -15 -9 0 -9 -2 0 -8 14 -9 10 -48 -5 -45 -5 1 -8 -6 -5
-17 3 -11 10 -17 16 -13 6 4 7 1 1 -8 -11 -18 -13 -58 -3 -65 5 -2 6 -11 2
-19 -3 -10 1 -15 12 -15 10 0 13 5 9 12 -4 7 -3 8 5 4 18 -12 1 -28 -25 -23
-36 7 -36 -25 1 -46 24 -14 26 -17 6 -11 -19 5 -23 3 -18 -9 4 -11 2 -14 -8
-11 -9 4 -13 -1 -12 -15 1 -23 22 -29 30 -8 3 6 3 -5 2 -25 -4 -47 21 -74 31
-34 6 25 7 26 21 9 9 -11 12 -12 8 -3 -4 8 1 6 9 -4 9 -11 16 -28 16 -38 0
-10 7 -35 15 -55 15 -35 15 -36 -2 -21 -23 19 -70 35 -106 37 -15 0 -50 12
-77 26 -63 32 -83 32 -47 0 24 -21 37 -26 72 -25 3 0 46 -21 96 -47 83 -44 93
-52 115 -97 13 -27 22 -51 20 -53 -12 -12 -132 29 -181 61 -31 21 -59 35 -62
32 -11 -11 59 -66 93 -72 51 -9 228 -144 189 -144 -7 0 -15 -6 -18 -12 -6 -19
11 -48 30 -48 12 0 13 -3 3 -15 -18 -22 -3 -57 22 -49 17 5 19 3 14 -14 -4
-12 -1 -30 6 -41 10 -16 15 -18 27 -8 12 10 14 9 8 -5 -9 -25 20 -45 44 -30
17 11 19 9 19 -12 0 -30 27 -41 50 -21 17 15 18 15 16 -2 -2 -27 44 -31 51 -4
5 20 6 20 18 5 17 -24 45 -11 45 22 l0 26 18 -22 c23 -29 56 -18 49 17 -3 18
-1 21 6 14 15 -15 23 -14 42 5 13 13 13 19 3 32 -11 13 -10 14 9 8 30 -10 48
22 26 46 -13 15 -13 16 6 11 16 -4 22 1 27 22 4 18 2 30 -6 35 -9 6 -8 10 5
18 11 6 16 16 12 26 -3 9 -3 15 1 14 4 -1 14 2 22 5 8 3 34 11 58 17 23 6 42
15 42 19 0 15 -47 22 -75 11 -32 -12 -45 -6 -45 21 0 14 -7 19 -27 19 -26 0
-26 1 -7 14 15 12 17 18 8 33 -7 10 -19 17 -28 17 -12 -1 -14 4 -10 20 7 29
-20 54 -40 37 -11 -9 -11 -3 0 38 7 27 15 73 19 103 3 29 9 61 11 71 4 11 -9
37 -34 70 -73 97 -152 238 -152 271 0 42 -23 15 -73 -87z m-377 -241 c0 -3 -4
-8 -10 -11 -5 -3 -10 -1 -10 4 0 6 5 11 10 11 6 0 10 -2 10 -4z m243 -208
c-14 -15 -14 -20 -2 -35 12 -15 12 -16 -3 -11 -9 4 -23 -1 -34 -13 -16 -18
-16 -20 0 -38 16 -18 16 -18 -9 -14 -15 3 -25 1 -25 -6 0 -18 -20 -2 -30 23
-6 16 -2 27 16 46 19 21 74 127 74 145 1 35 4 31 15 -20 12 -53 11 -62 -2 -77z"/>
<path d="M1546 1519 c-14 -21 -15 -21 -33 -3 -17 17 -18 17 -21 -15 -2 -20 3
-40 12 -50 9 -10 13 -22 9 -26 -5 -5 11 6 35 24 32 25 42 39 42 62 0 35 -22
39 -44 8z"/>
<path d="M665 1470 c3 -5 8 -10 11 -10 2 0 4 5 4 10 0 6 -5 10 -11 10 -5 0 -7
-4 -4 -10z"/>
<path d="M1415 1440 c30 -31 85 -57 85 -39 0 22 -59 69 -86 69 l-28 0 29 -30z"/>
<path d="M1570 1448 c-19 -13 -37 -34 -41 -48 -6 -21 -7 -21 -8 -5 -1 16 -3
17 -10 5 -5 -8 -12 -25 -16 -38 -6 -21 -4 -23 17 -20 12 2 22 9 21 16 -2 6 4
12 11 12 20 0 69 65 64 85 -3 14 -8 13 -38 -7z"/>
<path d="M1501 1315 c3 -53 -6 -57 -51 -24 -18 14 -35 19 -47 15 -16 -7 -13
-12 20 -42 21 -19 42 -32 47 -29 5 3 10 -7 12 -22 3 -25 4 -26 20 -10 10 10
20 17 23 16 3 -1 19 1 36 5 34 7 35 29 1 34 -18 3 -20 8 -15 34 6 28 4 31 -15
26 -12 -3 -23 -1 -26 6 -3 6 -5 2 -5 -9z"/>
<path d="M1454 1176 c-6 -24 -8 -25 -23 -13 -9 8 -26 17 -38 20 -35 8 -29 -28
8 -50 23 -13 29 -24 26 -40 -6 -31 12 -43 43 -30 14 5 32 11 41 13 52 11 92
41 59 45 -5 1 -16 2 -22 3 -7 1 -27 -1 -44 -5 -31 -6 -31 -6 -20 22 8 24 7 32
-6 46 -16 15 -17 14 -24 -11z"/>
<path d="M1296 1071 c-7 -11 25 -45 69 -72 17 -10 26 -19 21 -19 -5 0 -3 -7 4
-15 10 -12 10 -15 -4 -15 -9 0 -16 -4 -16 -10 0 -5 5 -10 10 -10 6 0 4 -14 -5
-31 -9 -17 -14 -33 -12 -35 2 -3 14 15 25 38 12 24 21 38 22 31 0 -12 60 -53
79 -53 19 0 12 30 -13 54 l-23 24 36 6 c45 7 66 20 57 35 -9 14 -71 14 -98 0
-19 -10 -20 -9 -15 17 l6 29 -13 -29 c-13 -28 -14 -29 -20 -8 -12 36 -97 85
-110 63z"/>
</g>
</svg>
